<svg width="16.000000" height="16.000000" viewBox="0 0 16 16" fill="none" xmlns="http://www.w3.org/2000/svg" xmlns:xlink="http://www.w3.org/1999/xlink">
	<desc>
			Created with Pixso.
	</desc>
	<defs>
		<linearGradient x1="63.799965" y1="-5.827393" x2="-76.108360" y2="21.203125" id="paint_linear_92_2230_0" gradientUnits="userSpaceOnUse">
			<stop stop-color="#FF3232"/>
			<stop offset="0.171862" stop-color="#E58AAE"/>
			<stop offset="0.354161" stop-color="#B38DFF"/>
			<stop offset="0.515626" stop-color="#2B4DEC"/>
			<stop offset="0.687508" stop-color="#8296F4"/>
			<stop offset="0.859390" stop-color="#38CA70"/>
		</linearGradient>
		<linearGradient x1="117.384499" y1="-23.176178" x2="-157.248871" y2="36.520981" id="paint_linear_92_2231_0" gradientUnits="userSpaceOnUse">
			<stop stop-color="#FF3232"/>
			<stop offset="0.171862" stop-color="#E58AAE"/>
			<stop offset="0.354161" stop-color="#B38DFF"/>
			<stop offset="0.515626" stop-color="#2B4DEC"/>
			<stop offset="0.687508" stop-color="#8296F4"/>
			<stop offset="0.859390" stop-color="#38CA70"/>
		</linearGradient>
	</defs>
	<path id="Vector" d="M10.03 4.66C9.21 4.66 8.56 4.93 8.15 5.47C7.83 4.93 7.09 4.66 6.28 4.66C5.05 4.66 4.08 5.29 4 6.09L4 10.74C4 11.37 4.32 11.82 4.81 11.82L5.87 11.82L5.87 7.35C5.87 6.9 6.2 6.54 6.52 6.54C6.85 6.54 7.17 6.9 7.17 7.35L7.17 10.83C7.17 11.37 7.5 11.91 7.99 11.91L9.05 11.91L9.05 7.43C9.05 6.99 9.37 6.63 9.7 6.63C10.03 6.63 10.35 6.99 10.35 7.43L10.35 10.83C10.35 11.37 10.68 11.91 11.17 11.91L12.15 11.91L12.15 6.72C12.15 5.38 11.17 4.66 10.03 4.66Z" fill="url(#paint_linear_92_2230_0)" fill-opacity="1.000000" fill-rule="nonzero"/>
	<path id="Vector" d="M8 1.6C11.52 1.6 14.4 4.48 14.4 8C14.4 11.52 11.52 14.4 8 14.4C4.48 14.4 1.6 11.52 1.6 8C1.6 4.48 4.48 1.6 8 1.6ZM8 0C3.6 0 0 3.6 0 8C0 12.4 3.6 16 8 16C12.4 16 16 12.4 16 8C16 3.6 12.4 0 8 0Z" fill="url(#paint_linear_92_2231_0)" fill-opacity="1.000000" fill-rule="nonzero"/>
</svg>
