<svg width="24.000000" height="24.000000" viewBox="0 0 24 24" fill="none" xmlns="http://www.w3.org/2000/svg" xmlns:xlink="http://www.w3.org/1999/xlink">
	<desc>
			Created with Pixso.
	</desc>
	<defs>
		<clipPath id="clip2_2937">
			<rect id="icons_Sidebar / Profil" rx="0.000000" width="23.000000" height="23.000000" transform="translate(0.500000 0.500000)" fill="white" fill-opacity="0"/>
		</clipPath>
	</defs>
	<g clip-path="url(#clip2_2937)">
		<path id="icon Profil" d="M4.35 14.76C5.23 13.88 6.41 13.38 7.64 13.38L16.92 13.38C18.16 13.38 19.34 13.88 20.21 14.76C21.08 15.64 21.57 16.83 21.57 18.08C21.57 18.7 21.32 19.3 20.89 19.74C20.45 20.18 19.86 20.42 19.25 20.42L5.32 20.42C4.7 20.42 4.11 20.18 3.67 19.74C3.24 19.3 3 18.7 3 18.08C3 16.83 3.48 15.64 4.35 14.76ZM12.28 11.04C10.36 11.04 8.8 9.46 8.8 7.52C8.8 5.57 10.36 4 12.28 4C14.2 4 15.76 5.57 15.76 7.52C15.76 9.46 14.2 11.04 12.28 11.04Z" stroke="#252529" stroke-opacity="1.000000" stroke-width="1.500000"/>
	</g>
</svg>
