<svg width="24.000000" height="24.000000" viewBox="0 0 24 24" fill="none" xmlns="http://www.w3.org/2000/svg" xmlns:xlink="http://www.w3.org/1999/xlink">
	<desc>
			Created with Pixso.
	</desc>
	<defs>
		<clipPath id="clip2_2959">
			<rect id="icons_Sidebar / FAQ" rx="0.000000" width="23.000000" height="23.000000" transform="translate(0.500000 0.500000)" fill="white" fill-opacity="0"/>
		</clipPath>
	</defs>
	<rect id="icons_Sidebar / FAQ" rx="0.000000" width="23.000000" height="23.000000" transform="translate(0.500000 0.500000)" fill="#FFFFFF" fill-opacity="0"/>
	<g clip-path="url(#clip2_2959)">
		<path id="Vector" d="M20.47 18.93L22.66 21.13C23.1 21.57 23.1 22.23 22.66 22.67C22.45 22.89 22.23 23 21.89 23L12 23C5.95 23 1 18.04 1 12C1 5.95 5.95 1 12 1C18.04 1 23 5.95 23 12C23 14.53 22.12 16.95 20.47 18.93ZM21.03 14.94Q21.5 13.55 21.5 12Q21.5 10.09 20.84 8.45Q20.14 6.72 18.7 5.29Q17.27 3.85 15.54 3.15Q13.9 2.5 12 2.5Q10.09 2.5 8.45 3.15Q6.72 3.85 5.29 5.29Q3.85 6.72 3.15 8.45Q2.5 10.09 2.5 12Q2.5 13.9 3.15 15.54Q3.85 17.27 5.29 18.7Q6.72 20.14 8.45 20.84Q10.09 21.5 12 21.5L20.91 21.5L18.44 19.02L19.31 17.96Q20.48 16.56 21.03 14.94Z" fill="#252529" fill-opacity="1.000000" fill-rule="evenodd"/>
		<path id="Vector" d="M11.99 6.22C11.19 6.22 10.42 6.54 9.86 7.11C9.29 7.67 8.97 8.44 8.97 9.24C8.97 9.45 9.05 9.65 9.19 9.81C9.33 9.96 9.53 10.05 9.74 10.07C9.95 10.08 10.15 10.02 10.32 9.88C10.48 9.75 10.58 9.56 10.61 9.36L10.63 9.1C10.66 8.75 10.83 8.43 11.1 8.2C11.37 7.98 11.71 7.86 12.07 7.88C12.42 7.89 12.75 8.05 12.99 8.3C13.23 8.56 13.37 8.89 13.37 9.24C13.37 9.84 13.22 10.13 12.66 10.71L12.33 11.05C11.5 11.91 11.17 12.53 11.17 13.64C11.17 13.86 11.26 14.07 11.41 14.23C11.57 14.38 11.78 14.47 11.99 14.47C12.21 14.47 12.42 14.38 12.58 14.23C12.73 14.07 12.82 13.86 12.82 13.64C12.82 13.05 12.97 12.76 13.53 12.18L13.86 11.84C14.69 10.98 15.02 10.36 15.02 9.24C15.02 8.44 14.7 7.67 14.13 7.11C13.57 6.54 12.8 6.22 11.99 6.22ZM11.99 15.84C11.7 15.84 11.42 15.96 11.22 16.17C11.01 16.37 10.89 16.65 10.89 16.94C10.89 17.24 11.01 17.52 11.22 17.72C11.42 17.93 11.7 18.04 11.99 18.04C12.29 18.04 12.57 17.93 12.77 17.72C12.98 17.52 13.09 17.24 13.09 16.94C13.09 16.65 12.98 16.37 12.77 16.17C12.57 15.96 12.29 15.84 11.99 15.84Z" fill="#252529" fill-opacity="1.000000" fill-rule="evenodd"/>
		<path id="Vector" d="M9.86 7.11C10.42 6.54 11.19 6.22 11.99 6.22C12.8 6.22 13.57 6.54 14.13 7.11C14.7 7.67 15.02 8.44 15.02 9.24C15.02 10.36 14.69 10.98 13.86 11.84L13.53 12.18C12.97 12.76 12.82 13.05 12.82 13.64C12.82 13.86 12.73 14.07 12.58 14.23C12.42 14.38 12.21 14.47 11.99 14.47C11.78 14.47 11.57 14.38 11.41 14.23C11.26 14.07 11.17 13.86 11.17 13.64C11.17 12.53 11.5 11.91 12.33 11.05L12.66 10.71C13.22 10.13 13.37 9.84 13.37 9.24C13.37 8.89 13.23 8.56 12.99 8.3C12.75 8.05 12.42 7.89 12.07 7.88C11.71 7.86 11.37 7.98 11.1 8.2C10.83 8.43 10.66 8.75 10.63 9.1L10.61 9.36C10.58 9.56 10.48 9.75 10.32 9.88C10.15 10.02 9.95 10.08 9.74 10.07C9.53 10.05 9.33 9.96 9.19 9.81C9.05 9.65 8.97 9.45 8.97 9.24C8.97 8.44 9.29 7.67 9.86 7.11ZM11.99 15.84C11.7 15.84 11.42 15.96 11.22 16.17C11.01 16.37 10.89 16.65 10.89 16.94C10.89 17.24 11.01 17.52 11.22 17.72C11.42 17.93 11.7 18.04 11.99 18.04C12.29 18.04 12.57 17.93 12.77 17.72C12.98 17.52 13.09 17.24 13.09 16.94C13.09 16.65 12.98 16.37 12.77 16.17C12.57 15.96 12.29 15.84 11.99 15.84Z" fill="#252529" fill-opacity="1.000000" fill-rule="evenodd"/>
	</g>
</svg>
