<svg width="24.000000" height="24.000000" viewBox="0 0 24 24" fill="none" xmlns="http://www.w3.org/2000/svg" xmlns:xlink="http://www.w3.org/1999/xlink">
	<desc>
			Created with Pixso.
	</desc>
	<defs/>
	<path id="Line_200" d="M3.09 9.4L20.91 9.4" stroke="#252529" stroke-opacity="1.000000" stroke-width="1.500000" stroke-linejoin="round" stroke-linecap="round"/>
	<path id="Line_201" d="M16.44 13.3L16.45 13.3" stroke="#252529" stroke-opacity="1.000000" stroke-width="1.500000" stroke-linejoin="round" stroke-linecap="round"/>
	<path id="Line_202" d="M12 13.3L12.01 13.3" stroke="#252529" stroke-opacity="1.000000" stroke-width="1.500000" stroke-linejoin="round" stroke-linecap="round"/>
	<path id="Line_203" d="M7.55 13.3L7.56 13.3" stroke="#252529" stroke-opacity="1.000000" stroke-width="1.500000" stroke-linejoin="round" stroke-linecap="round"/>
	<path id="Line_204" d="M16.44 17.19L16.45 17.19" stroke="#252529" stroke-opacity="1.000000" stroke-width="1.500000" stroke-linejoin="round" stroke-linecap="round"/>
	<path id="Line_205" d="M12 17.19L12.01 17.19" stroke="#252529" stroke-opacity="1.000000" stroke-width="1.500000" stroke-linejoin="round" stroke-linecap="round"/>
	<path id="Line_206" d="M7.55 17.19L7.56 17.19" stroke="#252529" stroke-opacity="1.000000" stroke-width="1.500000" stroke-linejoin="round" stroke-linecap="round"/>
	<path id="Line_207" d="M16.04 2L16.04 5.29" stroke="#252529" stroke-opacity="1.000000" stroke-width="1.500000" stroke-linejoin="round" stroke-linecap="round"/>
	<path id="Line_208" d="M7.96 2L7.96 5.29" stroke="#252529" stroke-opacity="1.000000" stroke-width="1.500000" stroke-linejoin="round" stroke-linecap="round"/>
	<path id="Path" d="M7.77 3.58C4.83 3.58 3 5.21 3 8.22L3 17.27C3 20.32 4.83 22 7.77 22L16.22 22C19.17 22 21 20.35 21 17.34L21 8.22C21 5.21 19.18 3.58 16.23 3.58L7.77 3.58Z" stroke="#252529" stroke-opacity="1.000000" stroke-width="1.500000" stroke-linejoin="round"/>
</svg>
