<svg width="24.000000" height="24.000000" viewBox="0 0 24 24" fill="none" xmlns="http://www.w3.org/2000/svg" xmlns:xlink="http://www.w3.org/1999/xlink">
	<desc>
			Created with Pixso.
	</desc>
	<defs>
		<clipPath id="clip2_2939">
			<rect id="icons_Sidebar / Content" rx="0.000000" width="23.000000" height="23.000000" transform="translate(0.500000 0.500000)" fill="white" fill-opacity="0"/>
		</clipPath>
	</defs>
	<g clip-path="url(#clip2_2939)">
		<path id="Vector" d="M21 12L21 17.4C21 19.38 19.38 21 17.39 21L6.6 21C4.61 21 3 19.38 3 17.4L3 6.6C3 4.61 4.61 3 6.6 3L12 3M20.46 4.82C21.17 5.53 21.17 6.68 20.46 7.39L13.17 14.68C12.89 14.96 12.53 15.14 12.14 15.2L9.43 15.59C8.83 15.67 8.32 15.16 8.4 14.56L8.79 11.85C8.85 11.46 9.03 11.1 9.31 10.82L16.6 3.53C17.31 2.82 18.46 2.82 19.17 3.53L20.46 4.82ZM15.31 4.82C15.31 4.82 15.31 6.1 16.6 7.39C17.89 8.68 19.17 8.68 19.17 8.68" stroke="#252529" stroke-opacity="1.000000" stroke-width="1.500000" stroke-linecap="round"/>
	</g>
</svg>
