<svg width="24.000000" height="24.000000" viewBox="0 0 24 24" fill="none" xmlns="http://www.w3.org/2000/svg" xmlns:xlink="http://www.w3.org/1999/xlink">
	<desc>
			Created with Pixso.
	</desc>
	<defs>
		<clipPath id="clip2_2956">
			<rect id="icons_Sidebar / Report" rx="0.000000" width="23.000000" height="23.000000" transform="translate(0.500000 0.500000)" fill="white" fill-opacity="0"/>
		</clipPath>
	</defs>
	<g clip-path="url(#clip2_2956)">
		<path id="Vector" d="M17 3.5C19.2 3.5 21 5.29 21 7.5L21 18C21 20.2 19.2 22 17 22L7 22C4.79 22 3 20.2 3 18L3 7.5C3 5.29 4.79 3.5 7 3.5L17 3.5ZM8 9L12 9M8 13L16 13M8 17L16 17M15.99 2L15.99 5M7.99 2L7.99 5" stroke="#252529" stroke-opacity="1.000000" stroke-width="1.500000" stroke-linejoin="round" stroke-linecap="round"/>
	</g>
</svg>
